<mxfile host="65bd71144e">
    <diagram id="r9yDOdrft_3wjeYdZze2" name="Infrastructure actuelle">
        <mxGraphModel dx="1200" dy="588" grid="1" gridSize="10" guides="1" tooltips="1" connect="1" arrows="1" fold="1" page="1" pageScale="1" pageWidth="827" pageHeight="1169" math="0" shadow="0">
            <root>
                <mxCell id="0"/>
                <mxCell id="1" parent="0"/>
                <mxCell id="SxDabUhU83ZVip-BnQjD-1" value="" style="rounded=0;whiteSpace=wrap;html=1;fillColor=none;strokeWidth=2;" parent="1" vertex="1">
                    <mxGeometry x="40" y="120" width="760" height="360" as="geometry"/>
                </mxCell>
                <mxCell id="SxDabUhU83ZVip-BnQjD-2" value="&lt;span style=&quot;font-size: 14px;&quot;&gt;Machine de développement&lt;/span&gt;" style="text;html=1;strokeColor=none;fillColor=none;align=center;verticalAlign=middle;whiteSpace=wrap;rounded=0;fontStyle=1;fontSize=14;" parent="1" vertex="1">
                    <mxGeometry x="40" y="120" width="200" height="30" as="geometry"/>
                </mxCell>
                <mxCell id="SxDabUhU83ZVip-BnQjD-3" value="&lt;font style=&quot;font-size: 14px&quot;&gt;Projet Frontend (Vue.js)&lt;/font&gt;" style="rounded=0;whiteSpace=wrap;html=1;strokeWidth=2;fillColor=none;fontSize=14;" parent="1" vertex="1">
                    <mxGeometry x="80" y="160" width="200" height="280" as="geometry"/>
                </mxCell>
                <mxCell id="SxDabUhU83ZVip-BnQjD-4" value="Projet Backend / API (Laravel)" style="rounded=0;whiteSpace=wrap;html=1;strokeWidth=2;fillColor=none;fontSize=14;" parent="1" vertex="1">
                    <mxGeometry x="320" y="160" width="200" height="280" as="geometry"/>
                </mxCell>
                <mxCell id="SxDabUhU83ZVip-BnQjD-6" value="" style="shape=cylinder3;whiteSpace=wrap;html=1;boundedLbl=1;backgroundOutline=1;size=15;strokeWidth=2;fillColor=none;fontSize=14;" parent="1" vertex="1">
                    <mxGeometry x="560" y="160" width="200" height="280" as="geometry"/>
                </mxCell>
                <mxCell id="LVgjFQmivS-eAMBgzMLH-1" value="Base de données (MySQL)" style="text;html=1;strokeColor=none;fillColor=none;align=center;verticalAlign=middle;whiteSpace=wrap;rounded=0;fontSize=14;" parent="1" vertex="1">
                    <mxGeometry x="560" y="240" width="200" height="30" as="geometry"/>
                </mxCell>
                <mxCell id="2" value="Node" style="rounded=0;whiteSpace=wrap;html=1;" vertex="1" parent="1">
                    <mxGeometry x="120" y="190" width="120" height="60" as="geometry"/>
                </mxCell>
                <mxCell id="4" value="Vue" style="rounded=0;whiteSpace=wrap;html=1;" vertex="1" parent="1">
                    <mxGeometry x="120" y="350" width="120" height="60" as="geometry"/>
                </mxCell>
                <mxCell id="7" value="PHP" style="rounded=0;whiteSpace=wrap;html=1;" vertex="1" parent="1">
                    <mxGeometry x="354" y="190" width="120" height="60" as="geometry"/>
                </mxCell>
                <mxCell id="8" value="Laravel" style="rounded=0;whiteSpace=wrap;html=1;" vertex="1" parent="1">
                    <mxGeometry x="360" y="350" width="120" height="60" as="geometry"/>
                </mxCell>
            </root>
        </mxGraphModel>
    </diagram>
</mxfile>